<?xml version="1.0" encoding="UTF-8" standalone="no"?>
<!DOCTYPE svg PUBLIC "-//W3C//DTD SVG 1.1//EN" "http://www.w3.org/Graphics/SVG/1.1/DTD/svg11.dtd">
<svg version="1.1" xmlns="http://www.w3.org/2000/svg" xmlns:xlink="http://www.w3.org/1999/xlink" preserveAspectRatio="xMidYMid meet" viewBox="0 0 40 40" width="40" height="40"><defs><path d="M21.03 4.15L21.03 7.02L21.02 7.02L21.02 10.9L20 10.84L18.63 10.92L17.31 11.15L16.04 11.52L14.83 12.03L13.7 12.67L12.65 13.42L11.69 14.28L10.83 15.24L10.08 16.29L9.44 17.42L8.94 18.63L8.56 19.89L8.33 21.22L8.25 22.59L8.33 23.96L8.56 25.28L8.94 26.55L9.44 27.75L10.08 28.88L10.83 29.93L11.69 30.89L12.65 31.75L13.7 32.51L14.83 33.14L16.04 33.65L17.31 34.03L18.63 34.26L20 34.34L21.37 34.26L22.69 34.03L23.96 33.65L25.17 33.14L26.3 32.51L27.35 31.75L28.31 30.89L29.17 29.93L29.92 28.88L30.56 27.75L31.06 26.55L31.44 25.28L31.67 23.96L31.75 22.59L31.67 21.22L31.44 19.89L31.06 18.63L30.56 17.42L29.92 16.29L29.85 16.2L32.69 14.66L32.91 15.08L33.14 15.56L33.36 16.08L33.57 16.64L33.76 17.19L33.93 17.69L34.09 18.14L34.22 18.54L34.34 18.91L34.44 19.25L34.52 19.56L34.59 19.85L34.65 20.12L34.7 20.38L34.73 20.63L34.76 20.87L34.78 21.12L34.8 21.38L34.8 21.65L34.81 21.94L34.81 22.25L34.81 22.59L34.75 23.93L34.57 25.25L34.28 26.52L33.88 27.75L33.38 28.93L32.79 30.06L32.1 31.13L31.33 32.13L30.47 33.06L29.54 33.91L28.54 34.69L27.47 35.38L26.35 35.97L25.17 36.47L23.94 36.87L22.66 37.16L21.35 37.34L20 37.4L18.65 37.34L17.34 37.16L16.06 36.87L14.83 36.47L13.65 35.97L12.53 35.38L11.46 34.69L10.46 33.91L9.53 33.06L8.67 32.13L7.9 31.13L7.21 30.06L6.62 28.93L6.12 27.75L5.72 26.52L5.43 25.25L5.25 23.93L5.19 22.59L5.25 21.24L5.43 19.93L5.72 18.65L6.12 17.42L6.62 16.24L7.21 15.11L7.9 14.05L8.67 13.05L9.53 12.12L10.46 11.26L11.46 10.49L12.53 9.8L13.65 9.2L14.83 8.7L16.06 8.31L17.34 8.02L18.65 7.84L18.97 7.82L18.97 4.15L17.03 4.15L17.03 2.6L22.97 2.6L22.97 4.15L21.03 4.15ZM20.85 14.67L21.13 15.09L21.23 15.59L21.24 15.59L21.24 20.5L27.89 17.11L27.91 17.14L28.01 17.06L28.53 16.96L29.05 17.06L29.47 17.35L29.76 17.77L29.86 18.29L29.76 18.81L29.47 19.23L29.1 19.49L29.12 19.52L20.59 23.86L20.59 23.86L20.54 23.89L20 24L19.46 23.89L19.01 23.59L18.71 23.14L18.6 22.59L18.63 22.45L18.63 15.6L18.63 15.59L18.73 15.09L19.01 14.67L19.42 14.4L19.93 14.29L20.43 14.4L20.85 14.67Z" id="d9mNH1R8b4"></path></defs><g><g><g><use xlink:href="#d9mNH1R8b4" opacity="1" fill="#000000" fill-opacity="1"></use></g></g></g></svg>